<?xml version="1.0" encoding="iso-8859-1"?>
<!-- Generator: Adobe Illustrator 19.0.0, SVG Export Plug-In . SVG Version: 6.00 Build 0)  -->
<svg version="1.1" id="Capa_1" xmlns="http://www.w3.org/2000/svg" xmlns:xlink="http://www.w3.org/1999/xlink" x="0px"
     y="0px"
     viewBox="0 0 421.19 421.19" style="enable-background:new 0 0 421.19 421.19;" xml:space="preserve">
<g>
	<path style="fill:#3E425B;" d="M48.043,0.378l97.04,23.36l-32.68,135.6l-97.04-23.36c-7.349-1.777-11.875-9.166-10.12-16.52
		l26.28-108.96C33.301,3.149,40.689-1.377,48.043,0.378"/>
    <path style="fill:#D29B88;" d="M368.683,49.378c-70.4-21.48-152-8.36-223.6-25.6l-16.32,67.76l-16.36,67.8
		c71.56,17.24,138.2,66.12,210.72,79.08C412.963,254.418,455.963,75.978,368.683,49.378"/>
    <path style="fill:#3E425B;" d="M313.603,236.498l-37.96,157.56c-5.101,19.422-24.982,31.032-44.404,25.93
		c-18.867-4.956-30.462-23.917-26.276-42.97l39.6-164.28C266.767,222.839,289.886,230.795,313.603,236.498"/>
    <path style="fill:#D29B88;" d="M237.123,243.578l-20.44-4.92c-12.595-2.987-25.241,4.747-28.32,17.32l-3.52,14.56
		c-3.037,12.622,4.708,25.322,17.32,28.4l20.44,4.88L237.123,243.578z"/>
    <path style="fill:#3E425B;" d="M323.123,238.418c89.84,16,132.84-162.44,45.56-189.04c-5.653-1.733-11.373-3.24-17.16-4.52
		c10.08,27.8,33.64,117.32-47.12,189.44c3.067,0.8,6.133,1.547,9.2,2.24c3.067,0.693,6.24,1.333,9.52,1.92"/>
</g>
    <g>
</g>
    <g>
</g>
    <g>
</g>
    <g>
</g>
    <g>
</g>
    <g>
</g>
    <g>
</g>
    <g>
</g>
    <g>
</g>
    <g>
</g>
    <g>
</g>
    <g>
</g>
    <g>
</g>
    <g>
</g>
    <g>
</g>
</svg>
