<svg height="512pt" viewBox="-44 0 512 512.00002" width="512pt" xmlns="http://www.w3.org/2000/svg"><path d="m406.070312 476.691406c9.75 0 17.652344-7.90625 17.652344-17.65625v-353.105468h-423.722656v353.105468c0 9.75 7.90625 17.65625 17.65625 17.65625zm-194.207031-52.96875c-73.132812 0-132.414062-59.28125-132.414062-132.410156 0-73.132812 59.28125-132.414062 132.414062-132.414062 73.128907 0 132.414063 59.28125 132.414063 132.414062 0 73.128906-59.285156 132.410156-132.414063 132.410156zm0 0" fill="#ffc477"/><path d="m388.414062 0h-353.105468c-19.5 0-35.308594 15.808594-35.308594 35.308594v70.621094h423.722656v-70.621094c0-19.5-15.808594-35.308594-35.308594-35.308594zm-247.171874 70.621094h-105.933594v-35.3125h105.933594zm52.964843 0c-9.75 0-17.65625-7.90625-17.65625-17.65625s7.90625-17.65625 17.65625-17.65625 17.65625 7.90625 17.65625 17.65625-7.90625 17.65625-17.65625 17.65625zm70.621094 0c-9.75 0-17.65625-7.90625-17.65625-17.65625s7.90625-17.65625 17.65625-17.65625 17.65625 7.90625 17.65625 17.65625-7.90625 17.65625-17.65625 17.65625zm0 0" fill="#ff9478"/><path d="m26.484375 476.691406h370.757813v35.308594h-370.757813zm0 0" fill="#787680"/><path d="m35.308594 35.308594h105.933594v35.3125h-105.933594zm0 0" fill="#ffeb99"/><path d="m211.863281 52.964844c0 9.75-7.90625 17.65625-17.65625 17.65625s-17.65625-7.90625-17.65625-17.65625 7.90625-17.65625 17.65625-17.65625 17.65625 7.90625 17.65625 17.65625zm0 0" fill="#ffb655"/><path d="m282.484375 52.964844c0 9.75-7.90625 17.65625-17.65625 17.65625s-17.65625-7.90625-17.65625-17.65625 7.90625-17.65625 17.65625-17.65625 17.65625 7.90625 17.65625 17.65625zm0 0" fill="#ffb655"/><path d="m211.863281 158.894531c-73.132812 0-132.414062 59.285157-132.414062 132.414063 0 73.132812 59.28125 132.414062 132.414062 132.414062 73.128907 0 132.414063-59.28125 132.414063-132.414062 0-73.128906-59.285156-132.414063-132.414063-132.414063zm102.132813 160.3125h-.042969c-15.371094 56.417969-73.566406 89.691407-129.984375 74.320313-31.40625-8.554688-57.128906-31.082032-69.757812-61.082032h-.070313.070313c-22.921876-53.878906 2.175781-116.140624 56.054687-139.058593 53.882813-22.921875 116.140625 2.175781 139.0625 56.054687 9.386719 22.0625 11.015625 46.65625 4.625 69.761719h.042969zm0 0" fill="#ff9478"/><path d="m185.378906 317.792969c-24.324218 1.25-48.320312 6.183593-71.167968 14.628906 22.683593 53.894531 84.765624 79.195313 138.660156 56.511719 30-12.625 52.527344-38.351563 61.082031-69.753906-17.804687 4.289062-28.9375 16.269531-57.953125 16.269531-35.308594 0-35.308594-17.65625-70.621094-17.65625zm0 0" fill="#ffeb99"/><path d="m211.863281 185.378906c-58.503906-.011718-105.941406 47.40625-105.953125 105.910156-.003906 14.125 2.816406 28.109376 8.300782 41.128907 22.847656-8.445313 46.84375-13.375 71.167968-14.625 35.308594 0 35.308594 17.65625 70.621094 17.65625 29.015625 0 40.148438-11.980469 57.953125-16.234375 15.585937-56.207032-17.34375-114.410156-73.550781-129.996094-9.292969-2.578125-18.894532-3.867188-28.539063-3.839844zm0 0" fill="#e6e7e8"/><path d="m335.449219 61.792969h-17.65625c-4.875 0-8.828125-3.953125-8.828125-8.828125s3.953125-8.828125 8.828125-8.828125h17.65625c4.875 0 8.828125 3.953125 8.828125 8.828125s-3.953125 8.828125-8.828125 8.828125zm0 0" fill="#ffde55"/><path d="m388.414062 61.792969h-17.65625c-4.875 0-8.828124-3.953125-8.828124-8.828125s3.953124-8.828125 8.828124-8.828125h17.65625c4.875 0 8.828126 3.953125 8.828126 8.828125s-3.953126 8.828125-8.828126 8.828125zm0 0" fill="#ffde55"/><path d="m26.484375 476.691406h370.757813v8.824219h-370.757813zm0 0" fill="#57565c"/></svg>