<?xml version="1.0" encoding="iso-8859-1"?>
<!-- Generator: Adobe Illustrator 19.0.0, SVG Export Plug-In . SVG Version: 6.00 Build 0)  -->
<svg version="1.1" id="Layer_1" xmlns="http://www.w3.org/2000/svg" xmlns:xlink="http://www.w3.org/1999/xlink" x="0px" y="0px"
	 viewBox="0 0 512 512" style="enable-background:new 0 0 512 512;" xml:space="preserve">
<path style="fill:#949493;" d="M412.203,34.712v26.034H221.288c-23.96,0-43.39,19.43-43.39,43.39v39.398
	c-10.726,6.196-17.347,17.634-17.356,30.026l0.521,1.475c-47.495,16.254-79.195,61.145-78.622,111.338
	c-9.589,0-17.356,7.767-17.356,17.356s7.767,17.356,17.356,17.356h225.627c9.589,0,17.356-7.767,17.356-17.356
	s-7.767-17.356-17.356-17.356c0.573-50.193-31.128-95.084-78.622-111.338l0.521-1.475c-0.009-12.392-6.63-23.83-17.356-30.026
	v-30.72c0-9.589,7.767-17.356,17.356-17.356h182.237v26.034c0,19.17,15.542,34.712,34.712,34.712V0
	C427.746,0,412.203,15.542,412.203,34.712z"/>
<g>
	<path style="fill:#4C4C4F;" d="M325.424,303.729c0,9.589-7.767,17.356-17.356,17.356H82.441c-9.589,0-17.356-7.767-17.356-17.356
		s7.767-17.356,17.356-17.356h225.627C317.657,286.373,325.424,294.14,325.424,303.729z"/>
	<path style="fill:#4C4C4F;" d="M229.966,173.559l-0.521,1.475c-22.207-7.289-46.175-7.289-68.382,0l-0.521-1.475
		c0-19.17,15.542-34.712,34.712-34.712S229.966,154.39,229.966,173.559z"/>
	<path style="fill:#4C4C4F;" d="M446.915,0v156.203c-19.17,0-34.712-15.542-34.712-34.712v-86.78
		C412.203,15.542,427.746,0,446.915,0z"/>
</g>
<g>
	<path style="fill:#2998C0;" d="M108.475,390.508c-4.79,0-8.678-3.888-8.678-8.678v-26.034c0-4.79,3.888-8.678,8.678-8.678
		s8.678,3.888,8.678,8.678v26.034C117.153,386.621,113.265,390.508,108.475,390.508z"/>
	<path style="fill:#2998C0;" d="M143.186,390.508c-4.79,0-8.678-3.888-8.678-8.678v-26.034c0-4.79,3.888-8.678,8.678-8.678
		s8.678,3.888,8.678,8.678v26.034C151.864,386.621,147.977,390.508,143.186,390.508z"/>
	<path style="fill:#2998C0;" d="M177.898,390.508c-4.79,0-8.678-3.888-8.678-8.678v-26.034c0-4.79,3.888-8.678,8.678-8.678
		s8.678,3.888,8.678,8.678v26.034C186.576,386.621,182.689,390.508,177.898,390.508z"/>
	<path style="fill:#2998C0;" d="M212.61,390.508c-4.79,0-8.678-3.888-8.678-8.678v-26.034c0-4.79,3.888-8.678,8.678-8.678
		s8.678,3.888,8.678,8.678v26.034C221.288,386.621,217.4,390.508,212.61,390.508z"/>
	<path style="fill:#2998C0;" d="M247.322,390.508c-4.79,0-8.678-3.888-8.678-8.678v-26.034c0-4.79,3.888-8.678,8.678-8.678
		s8.678,3.888,8.678,8.678v26.034C256,386.621,252.112,390.508,247.322,390.508z"/>
	<path style="fill:#2998C0;" d="M282.034,390.508c-4.79,0-8.678-3.888-8.678-8.678v-26.034c0-4.79,3.888-8.678,8.678-8.678
		s8.678,3.888,8.678,8.678v26.034C290.712,386.621,286.824,390.508,282.034,390.508z"/>
	<path style="fill:#2998C0;" d="M91.119,451.254c-4.79,0-8.678-3.888-8.678-8.678v-26.034c0-4.79,3.888-8.678,8.678-8.678
		s8.678,3.888,8.678,8.678v26.034C99.797,447.366,95.909,451.254,91.119,451.254z"/>
	<path style="fill:#2998C0;" d="M125.831,451.254c-4.79,0-8.678-3.888-8.678-8.678v-26.034c0-4.79,3.888-8.678,8.678-8.678
		s8.678,3.888,8.678,8.678v26.034C134.508,447.366,130.621,451.254,125.831,451.254z"/>
	<path style="fill:#2998C0;" d="M160.542,451.254c-4.79,0-8.678-3.888-8.678-8.678v-26.034c0-4.79,3.888-8.678,8.678-8.678
		s8.678,3.888,8.678,8.678v26.034C169.22,447.366,165.333,451.254,160.542,451.254z"/>
	<path style="fill:#2998C0;" d="M195.254,451.254c-4.79,0-8.678-3.888-8.678-8.678v-26.034c0-4.79,3.888-8.678,8.678-8.678
		s8.678,3.888,8.678,8.678v26.034C203.932,447.366,200.044,451.254,195.254,451.254z"/>
	<path style="fill:#2998C0;" d="M229.966,451.254c-4.79,0-8.678-3.888-8.678-8.678v-26.034c0-4.79,3.888-8.678,8.678-8.678
		s8.678,3.888,8.678,8.678v26.034C238.644,447.366,234.756,451.254,229.966,451.254z"/>
	<path style="fill:#2998C0;" d="M264.678,451.254c-4.79,0-8.678-3.888-8.678-8.678v-26.034c0-4.79,3.888-8.678,8.678-8.678
		c4.79,0,8.678,3.888,8.678,8.678v26.034C273.356,447.366,269.468,451.254,264.678,451.254z"/>
	<path style="fill:#2998C0;" d="M299.39,451.254c-4.79,0-8.678-3.888-8.678-8.678v-26.034c0-4.79,3.888-8.678,8.678-8.678
		s8.678,3.888,8.678,8.678v26.034C308.068,447.366,304.18,451.254,299.39,451.254z"/>
	<path style="fill:#2998C0;" d="M73.763,512c-4.79,0-8.678-3.888-8.678-8.678v-26.034c0-4.79,3.888-8.678,8.678-8.678
		s8.678,3.888,8.678,8.678v26.034C82.441,508.112,78.553,512,73.763,512z"/>
	<path style="fill:#2998C0;" d="M108.475,512c-4.79,0-8.678-3.888-8.678-8.678v-26.034c0-4.79,3.888-8.678,8.678-8.678
		s8.678,3.888,8.678,8.678v26.034C117.153,508.112,113.265,512,108.475,512z"/>
	<path style="fill:#2998C0;" d="M143.186,512c-4.79,0-8.678-3.888-8.678-8.678v-26.034c0-4.79,3.888-8.678,8.678-8.678
		s8.678,3.888,8.678,8.678v26.034C151.864,508.112,147.977,512,143.186,512z"/>
	<path style="fill:#2998C0;" d="M177.898,512c-4.79,0-8.678-3.888-8.678-8.678v-26.034c0-4.79,3.888-8.678,8.678-8.678
		s8.678,3.888,8.678,8.678v26.034C186.576,508.112,182.689,512,177.898,512z"/>
	<path style="fill:#2998C0;" d="M212.61,512c-4.79,0-8.678-3.888-8.678-8.678v-26.034c0-4.79,3.888-8.678,8.678-8.678
		s8.678,3.888,8.678,8.678v26.034C221.288,508.112,217.4,512,212.61,512z"/>
	<path style="fill:#2998C0;" d="M247.322,512c-4.79,0-8.678-3.888-8.678-8.678v-26.034c0-4.79,3.888-8.678,8.678-8.678
		s8.678,3.888,8.678,8.678v26.034C256,508.112,252.112,512,247.322,512z"/>
	<path style="fill:#2998C0;" d="M282.034,512c-4.79,0-8.678-3.888-8.678-8.678v-26.034c0-4.79,3.888-8.678,8.678-8.678
		s8.678,3.888,8.678,8.678v26.034C290.712,508.112,286.824,512,282.034,512z"/>
	<path style="fill:#2998C0;" d="M316.746,512c-4.79,0-8.678-3.888-8.678-8.678v-26.034c0-4.79,3.888-8.678,8.678-8.678
		s8.678,3.888,8.678,8.678v26.034C325.424,508.112,321.536,512,316.746,512z"/>
</g>
<g>
</g>
<g>
</g>
<g>
</g>
<g>
</g>
<g>
</g>
<g>
</g>
<g>
</g>
<g>
</g>
<g>
</g>
<g>
</g>
<g>
</g>
<g>
</g>
<g>
</g>
<g>
</g>
<g>
</g>
</svg>
