<svg height="512pt" viewBox="0 -40 512 512" width="512pt" xmlns="http://www.w3.org/2000/svg"><path d="m256 136c-62.671875 0-115.84375 16.710938-135.628906 40v6.332031h271.257812v-6.332031c-19.785156-23.289062-72.957031-40-135.628906-40zm0 0" fill="#fff5d7"/><path d="m440 312c-30.875 0-56-25.125-56-56s25.125-56 56-56 56 25.125 56 56-25.125 56-56 56zm0-80c-13.234375 0-24 10.765625-24 24s10.765625 24 24 24 24-10.765625 24-24-10.765625-24-24-24zm0 0" fill="#edf4ff"/><path d="m470.667969 230c-8-9.667969-22.71875-14.214844-31.476563-13.988281-4.769531.121093-8.652344-3.726563-8.367187-8.488281.140625-2.351563.300781-4.679688.410156-6.835938-26.699219 4.246094-47.234375 27.4375-47.234375 55.3125 0 22.976562 13.921875 42.773438 33.765625 51.398438.488281-2.308594.96875-4.640626 1.429687-6.9375.90625-4.53125 5.492188-7.398438 9.917969-6.074219 3.453125 1.035156 7.09375 1.613281 10.886719 1.613281 22.054688 0 39.996094-17.9375 40-39.992188.003906-9.195312-4.054688-19.628906-9.332031-26.007812zm-30.667969 50c-13.234375 0-24-10.765625-24-24s10.765625-24 24-24 24 10.765625 24 24-10.765625 24-24 24zm0 0" fill="#dbeaff"/><path d="m407.859375 176h-303.71875c-4.503906 0-8.121094 3.65625-8.003906 8.15625.777343 29.421875 5.90625 131.929688 39.863281 199.84375h240c33.957031-67.914062 39.085938-170.421875 39.863281-199.84375.117188-4.5-3.5-8.15625-8.003906-8.15625zm0 0" fill="#edf4ff"/><path d="m158.496094 308.816406c-9.753906-49.484375-12.980469-102.863281-14.050782-132.816406h-40.308593c-4.5 0-8.117188 3.65625-8 8.15625.773437 29.421875 5.90625 131.929688 39.863281 199.84375h240c3.800781-7.601562 7.257812-15.683594 10.371094-24h-165.148438c-30.410156 0-56.839844-21.347656-62.726562-51.183594zm0 0" fill="#dbeaff"/><path d="m120.878906 192c-4.625 0-8.3125 3.867188-7.992187 8.480469 2.742187 39.1875 14.765625 120.613281 39.113281 175.519531h208c24.347656-54.90625 36.371094-136.332031 39.113281-175.519531.324219-4.613281-3.367187-8.480469-7.992187-8.480469zm0 0" fill="#fff"/><path d="m151.386719 264c-3.371094-26.695312-5.238281-52.136719-6.246094-72h-24.261719c-4.625 0-8.3125 3.867188-7.992187 8.480469 1.105469 15.796875 3.707031 38.519531 8.070312 63.519531zm0 0" fill="#fff5d7"/><g fill="#eceaec"><path d="m248 112c-4.421875 0-8-3.582031-8-8 0-11.308594 5.976562-17.28125 10.34375-21.644531 3.921875-3.914063 5.65625-5.835938 5.65625-10.320313 0-4.5-1.734375-6.425781-5.65625-10.351562-4.367188-4.367188-10.34375-10.347656-10.34375-21.667969 0-11.316406 5.976562-17.296875 10.34375-21.664063 3.921875-3.925781 5.65625-5.851562 5.65625-10.351562 0-4.417969 3.578125-8 8-8s8 3.582031 8 8c0 11.316406-5.976562 17.296875-10.34375 21.664062-3.921875 3.925782-5.65625 5.851563-5.65625 10.351563 0 4.503906 1.734375 6.429687 5.65625 10.355469 4.367188 4.367187 10.34375 10.347656 10.34375 21.664062 0 11.304688-5.976562 17.277344-10.34375 21.640625-3.921875 3.917969-5.65625 5.835938-5.65625 10.324219 0 4.417969-3.578125 8-8 8zm0 0"/><path d="m218.46875 96.003906c-.828125 0-1.664062-.128906-2.492188-.402344-4.195312-1.375-6.484374-5.894531-5.109374-10.09375 1.539062-4.703124 3.726562-9.222656 6.523437-13.492187-6.234375-9.542969-9.390625-20.277344-9.390625-32 0-4.417969 3.578125-8 8-8s8 3.582031 8 8c0 10.222656 3.109375 19.046875 9.507812 26.980469 2.367188 2.933594 2.367188 7.121094-.007812 10.050781-3.421875 4.238281-5.851562 8.636719-7.429688 13.445313-1.101562 3.371093-4.234374 5.511718-7.601562 5.511718zm0 0"/><path d="m293.539062 96.007812c-.820312 0-1.65625-.128906-2.484374-.398437-4.195313-1.371094-6.492188-5.886719-5.117188-10.085937 1.367188-4.203126 2.0625-8.742188 2.0625-13.488282 0-10.238281-3.109375-19.066406-9.515625-26.992187-2.773437-3.4375-2.234375-8.476563 1.203125-11.25 3.4375-2.773438 8.46875-2.238281 11.25 1.195312 8.664062 10.734375 13.0625 23.199219 13.0625 37.046875 0 6.433594-.960938 12.640625-2.859375 18.449219-1.09375 3.378906-4.234375 5.523437-7.601563 5.523437zm0 0"/></g><path d="m416 431.835938h-320c-4.421875 0-8-3.578126-8-8 0-4.425782 3.578125-8 8-8h320c4.421875 0 8 3.574218 8 8 0 4.421874-3.578125 8-8 8zm0 0" fill="#ffe09f"/><path d="m504 376h-496c-4.417969 0-8 3.582031-8 8s3.582031 8 8 8h98c7.554688 0 14.667969 3.558594 19.199219 9.601562l3.601562 4.796876c4.53125 6.042968 11.644531 9.601562 19.199219 9.601562h216c7.554688 0 14.667969-3.558594 19.199219-9.601562l3.601562-4.796876c4.53125-6.042968 11.644531-9.601562 19.199219-9.601562h98c4.417969 0 8-3.582031 8-8s-3.582031-8-8-8zm0 0" fill="#eceaec"/><path d="m168 392c-4.417969 0-8-3.582031-8-8s3.582031-8 8-8h-160c-4.417969 0-8 3.582031-8 8s3.582031 8 8 8h98c7.554688 0 14.667969 3.558594 19.199219 9.601562l3.601562 4.796876c4.53125 6.042968 11.644531 9.601562 19.199219 9.601562h216c7.554688 0 14.667969-3.558594 19.199219-9.601562l3.601562-4.796876c4.53125-6.042968 11.644531-9.601562 19.199219-9.601562zm0 0" fill="#dad8db"/><path d="m158.496094 308.816406c-2.398438-12.183594-4.367188-24.574218-6.039063-36.816406h-30.078125c6.441406 35.019531 16.125 73.570312 29.621094 104h208c2.261719-5.101562 4.382812-10.496094 6.433594-16h-145.210938c-30.410156 0-56.839844-21.347656-62.726562-51.183594zm0 0" fill="#785353"/><path d="m122.378906 272c6.441406 35.019531 16.125 73.570312 29.621094 104h208c13.496094-30.433594 23.230469-68.894531 29.640625-104zm0 0" fill="#966a5b"/><path d="m221.222656 360c-30.410156 0-56.839844-21.347656-62.726562-51.183594-2.398438-12.171875-4.398438-24.578125-6.074219-36.816406h-30.042969c6.308594 34.84375 16.125 73.570312 29.621094 104h208c2.261719-5.101562 4.441406-10.496094 6.492188-16zm0 0" fill="#785353"/><path d="m371.035156 160h-144.742187c-11.179688 0-17.167969-13.625-9.226563-21.492188l.3125-.320312c-45.203125 5.257812-81.457031 19.507812-97.007812 37.8125h271.257812c-4.921875-5.792969-11.90625-11.175781-20.59375-16zm0 0" fill="#f9eac7"/><path d="m362.695312 248c-26.660156 0-26.660156-8-53.320312-8-26.644531 0-26.644531 8-53.289062 8h-.171876c-26.644531 0-26.644531-8-53.289062-8-26.660156 0-26.660156 8-53.320312 8-16.617188 0-22.910157-3.101562-31.738282-5.4375 2.246094 15.664062 5.242188 32.949219 9.046875 50.59375 5.578125 1.542969 11.96875 2.84375 22.691407 2.84375 26.660156 0 26.660156-8 53.320312-8 26.644531 0 26.644531 8 53.289062 8h.171876c26.644531 0 26.644531-8 53.289062-8 26.660156 0 26.660156 8 53.320312 8 10.722657 0 17.160157-1.304688 22.738282-2.847656 3.804687-17.640625 6.777344-34.941406 9.019531-50.605469-8.828125 2.335937-15.140625 5.453125-31.757813 5.453125zm0 0" fill="#e2a975"/><path d="m156.089844 295.804688c-2.785156-16.082032-4.917969-32.324219-6.574219-47.808594-.074219 0-.136719.003906-.210937.003906-16.617188 0-22.933594-3.117188-31.761719-5.453125 2.242187 15.664063 5.210937 32.945313 9.015625 50.585937 5.578125 1.542969 12.027344 2.867188 22.75 2.867188 2.507812 0 4.703125-.066406 6.78125-.195312zm0 0" fill="#d19a6e"/></svg>