<svg height="512" viewBox="0 0 64 64" width="512" xmlns="http://www.w3.org/2000/svg"><rect fill="#394d5c" height="4" rx="2" width="58" x="3" y="49"/><path d="m7 45h50v4h-50z" fill="#aabece"/><path d="m29 20h6a18 18 0 0 1 18 18v3a0 0 0 0 1 0 0h-42a0 0 0 0 1 0 0v-3a18 18 0 0 1 18-18z" fill="#f9bb4b"/><path d="m30 16h4v4h-4z" fill="#d19637"/><path d="m30 41h4v4h-4z" fill="#d19637"/><path d="m27 12h10v4h-10z" fill="#f9bb4b"/><path d="m22 38h-7a1 1 0 0 1 -.988-1.152c2.106-13.69 14.859-13.848 14.988-13.848v2a13.362 13.362 0 0 0 -12.8 11h5.8z" fill="#f4f4e6"/><path d="m24 36h2v2h-2z" fill="#f4f4e6"/><path d="m49.99 38.142-1.98-.284.99.142-.99-.138c.035-.262.8-6.485-5.591-11.048l1.162-1.628c7.41 5.293 6.453 12.645 6.409 12.956z" fill="#f4f4e6"/><g fill="#cfdfe8"><path d="m9.97 29.243-1.94-.486c2.1-8.412 10.272-11.563 10.618-11.694l.705 1.873c-.076.028-7.539 2.931-9.383 10.307z"/><path d="m7.929 24.372-1.858-.744a14.912 14.912 0 0 1 6.482-7.523l.894 1.79-.447-.895.45.893a13.124 13.124 0 0 0 -5.521 6.479z"/><path d="m54.03 29.243c-1.851-7.406-9.306-10.279-9.382-10.306l.7-1.874c.346.131 8.515 3.282 10.618 11.694z"/><path d="m56.071 24.372a12.981 12.981 0 0 0 -5.518-6.472l.894-1.79a14.912 14.912 0 0 1 6.482 7.523z"/></g></svg>